<?xml version="1.0" encoding="utf-8"?><svg width="auto" height="3070" style="overflow:visible " version="1.1" xmlns="http://www.w3.org/2000/svg"><rect x="20" y="20" width="200" height="40" style="fill:white;stroke:black;stroke-width:1" /><text x="30" y="30" font-size="10" style="fill:blue">personas</text><rect x="240" y="20" width="200" height="40" style="fill:white;stroke:black;stroke-width:1" /><text x="250" y="30" font-size="10" style="fill:blue">persona</text><path d="M220 40 C240 40 220 40 240 40" style="fill:transparent;stroke:black" /><text x="250" y="40" font-size="8" style="fill:black">nombre: Laura</text><text x="250" y="50" font-size="8" style="fill:black">apellidos: Gómez Menéndez</text><text x="250" y="60" font-size="8" style="fill:black">fechaNacimiento: 2001-01-01</text><text x="250" y="70" font-size="8" style="fill:black">lugarNacimiento: Tebongo</text><text x="250" y="80" font-size="8" style="fill:black">lugarResidencia: Nava</text><text x="250" y="90" font-size="8" style="fill:black">comentarios: Comentario sobre Laura</text><rect x="460" y="20" width="200" height="40" style="fill:white;stroke:black;stroke-width:1" /><text x="470" y="30" font-size="10" style="fill:blue">coordenadasNacimiento</text><path d="M440 40 C460 40 440 40 460 40" style="fill:transparent;stroke:black" /><text x="470" y="40" font-size="8" style="fill:black">longitud: -6.50</text><text x="470" y="50" font-size="8" style="fill:black">latitud: 43.23</text><text x="470" y="60" font-size="8" style="fill:black">altitud: 302</text><rect x="460" y="70" width="200" height="40" style="fill:white;stroke:black;stroke-width:1" /><text x="470" y="80" font-size="10" style="fill:blue">coordenadasResidencia</text><path d="M440 40 C460 40 440 90 460 90" style="fill:transparent;stroke:black" /><text x="470" y="90" font-size="8" style="fill:black">longitud: -5.50</text><text x="470" y="100" font-size="8" style="fill:black">latitud: 43.35</text><text x="470" y="110" font-size="8" style="fill:black">altitud: 154</text><rect x="460" y="120" width="200" height="40" style="fill:white;stroke:black;stroke-width:1" /><text x="470" y="130" font-size="10" style="fill:blue">foto</text><path d="M440 40 C460 40 440 140 460 140" style="fill:transparent;stroke:black" /><rect x="526" y="120" width="137" height="40" style="fill:green;stroke:black;stroke-width:1" /><text x="536" y="130" font-size="8" style="fill:white">laura.jpg</text><rect x="460" y="170" width="200" height="40" style="fill:white;stroke:black;stroke-width:1" /><text x="470" y="180" font-size="10" style="fill:blue">video</text><path d="M440 40 C460 40 440 190 460 190" style="fill:transparent;stroke:black" /><rect x="526" y="170" width="137" height="40" style="fill:green;stroke:black;stroke-width:1" /><text x="536" y="180" font-size="8" style="fill:white">lauraV1.mp4</text><rect x="460" y="220" width="200" height="40" style="fill:white;stroke:black;stroke-width:1" /><text x="470" y="230" font-size="10" style="fill:blue">persona</text><path d="M440 40 C460 40 440 240 460 240" style="fill:transparent;stroke:black" /><text x="470" y="240" font-size="8" style="fill:black">nombre: Miguel</text><text x="470" y="250" font-size="8" style="fill:black">apellidos: Gayol Pertierra</text><text x="470" y="260" font-size="8" style="fill:black">fechaNacimiento: 2001-05-25</text><text x="470" y="270" font-size="8" style="fill:black">lugarNacimiento: Cadavedo</text><text x="470" y="280" font-size="8" style="fill:black">lugarResidencia: Malta</text><text x="470" y="290" font-size="8" style="fill:black">comentarios: Comentario sobre Miguel</text><rect x="680" y="220" width="200" height="40" style="fill:white;stroke:black;stroke-width:1" /><text x="690" y="230" font-size="10" style="fill:blue">coordenadasNacimiento</text><path d="M660 240 C680 240 660 240 680 240" style="fill:transparent;stroke:black" /><text x="690" y="240" font-size="8" style="fill:black">longitud: -6.38</text><text x="690" y="250" font-size="8" style="fill:black">latitud: 43.53</text><text x="690" y="260" font-size="8" style="fill:black">altitud: 10</text><rect x="680" y="270" width="200" height="40" style="fill:white;stroke:black;stroke-width:1" /><text x="690" y="280" font-size="10" style="fill:blue">coordenadasResidencia</text><path d="M660 240 C680 240 660 290 680 290" style="fill:transparent;stroke:black" /><text x="690" y="290" font-size="8" style="fill:black">longitud: 14.37</text><text x="690" y="300" font-size="8" style="fill:black">latitud: 35.93</text><text x="690" y="310" font-size="8" style="fill:black">altitud: 44</text><rect x="680" y="320" width="200" height="40" style="fill:white;stroke:black;stroke-width:1" /><text x="690" y="330" font-size="10" style="fill:blue">foto</text><path d="M660 240 C680 240 660 340 680 340" style="fill:transparent;stroke:black" /><rect x="746" y="320" width="137" height="40" style="fill:green;stroke:black;stroke-width:1" /><text x="756" y="330" font-size="8" style="fill:white">miguel.jpg</text><rect x="680" y="370" width="200" height="40" style="fill:white;stroke:black;stroke-width:1" /><text x="690" y="380" font-size="10" style="fill:blue">video</text><path d="M660 240 C680 240 660 390 680 390" style="fill:transparent;stroke:black" /><rect x="746" y="370" width="137" height="40" style="fill:green;stroke:black;stroke-width:1" /><text x="756" y="380" font-size="8" style="fill:white">miguelV1.mp4</text><rect x="680" y="420" width="200" height="40" style="fill:white;stroke:black;stroke-width:1" /><text x="690" y="430" font-size="10" style="fill:blue">video</text><path d="M660 240 C680 240 660 440 680 440" style="fill:transparent;stroke:black" /><rect x="746" y="420" width="137" height="40" style="fill:green;stroke:black;stroke-width:1" /><text x="756" y="430" font-size="8" style="fill:white">miguelV2.mp4</text><rect x="680" y="470" width="200" height="40" style="fill:white;stroke:black;stroke-width:1" /><text x="690" y="480" font-size="10" style="fill:blue">video</text><path d="M660 240 C680 240 660 490 680 490" style="fill:transparent;stroke:black" /><rect x="746" y="470" width="137" height="40" style="fill:green;stroke:black;stroke-width:1" /><text x="756" y="480" font-size="8" style="fill:white">miguelV3.mp4</text><rect x="680" y="520" width="200" height="40" style="fill:white;stroke:black;stroke-width:1" /><text x="690" y="530" font-size="10" style="fill:blue">persona</text><path d="M660 240 C680 240 660 540 680 540" style="fill:transparent;stroke:black" /><text x="690" y="540" font-size="8" style="fill:black">nombre: Luis</text><text x="690" y="550" font-size="8" style="fill:black">apellidos: Sánchez de Posada Orihuela</text><text x="690" y="560" font-size="8" style="fill:black">fechaNacimiento: 2001-08-26</text><text x="690" y="570" font-size="8" style="fill:black">lugarNacimiento: Oviedo</text><text x="690" y="580" font-size="8" style="fill:black">lugarResidencia: Oviedo</text><text x="690" y="590" font-size="8" style="fill:black">comentarios: Comentario sobre Luis</text><rect x="900" y="520" width="200" height="40" style="fill:white;stroke:black;stroke-width:1" /><text x="910" y="530" font-size="10" style="fill:blue">coordenadasNacimiento</text><path d="M880 540 C900 540 880 540 900 540" style="fill:transparent;stroke:black" /><text x="910" y="540" font-size="8" style="fill:black">longitud: -5.84</text><text x="910" y="550" font-size="8" style="fill:black">latitud: 43.36</text><text x="910" y="560" font-size="8" style="fill:black">altitud: 238</text><rect x="900" y="570" width="200" height="40" style="fill:white;stroke:black;stroke-width:1" /><text x="910" y="580" font-size="10" style="fill:blue">coordenadasResidencia</text><path d="M880 540 C900 540 880 590 900 590" style="fill:transparent;stroke:black" /><text x="910" y="590" font-size="8" style="fill:black">longitud: -5.82</text><text x="910" y="600" font-size="8" style="fill:black">latitud: 43.36</text><text x="910" y="610" font-size="8" style="fill:black">altitud: 234</text><rect x="900" y="620" width="200" height="40" style="fill:white;stroke:black;stroke-width:1" /><text x="910" y="630" font-size="10" style="fill:blue">foto</text><path d="M880 540 C900 540 880 640 900 640" style="fill:transparent;stroke:black" /><rect x="966" y="620" width="137" height="40" style="fill:green;stroke:black;stroke-width:1" /><text x="976" y="630" font-size="8" style="fill:white">luis.jpg</text><rect x="680" y="720" width="200" height="40" style="fill:white;stroke:black;stroke-width:1" /><text x="690" y="730" font-size="10" style="fill:blue">persona</text><path d="M660 240 C680 240 660 740 680 740" style="fill:transparent;stroke:black" /><text x="690" y="740" font-size="8" style="fill:black">nombre: Iván</text><text x="690" y="750" font-size="8" style="fill:black">apellidos: Vega García</text><text x="690" y="760" font-size="8" style="fill:black">fechaNacimiento: 2001-03-01</text><text x="690" y="770" font-size="8" style="fill:black">lugarNacimiento: Avilés</text><text x="690" y="780" font-size="8" style="fill:black">lugarResidencia: Avilés</text><text x="690" y="790" font-size="8" style="fill:black">comentarios: Comentario sobre Iván</text><rect x="900" y="720" width="200" height="40" style="fill:white;stroke:black;stroke-width:1" /><text x="910" y="730" font-size="10" style="fill:blue">coordenadasNacimiento</text><path d="M880 740 C900 740 880 740 900 740" style="fill:transparent;stroke:black" /><text x="910" y="740" font-size="8" style="fill:black">longitud: -5.94</text><text x="910" y="750" font-size="8" style="fill:black">latitud: 43.53</text><text x="910" y="760" font-size="8" style="fill:black">altitud: 8</text><rect x="900" y="770" width="200" height="40" style="fill:white;stroke:black;stroke-width:1" /><text x="910" y="780" font-size="10" style="fill:blue">coordenadasResidencia</text><path d="M880 740 C900 740 880 790 900 790" style="fill:transparent;stroke:black" /><text x="910" y="790" font-size="8" style="fill:black">longitud: -5.29</text><text x="910" y="800" font-size="8" style="fill:black">latitud: 43.55</text><text x="910" y="810" font-size="8" style="fill:black">altitud: 8</text><rect x="900" y="820" width="200" height="40" style="fill:white;stroke:black;stroke-width:1" /><text x="910" y="830" font-size="10" style="fill:blue">foto</text><path d="M880 740 C900 740 880 840 900 840" style="fill:transparent;stroke:black" /><rect x="966" y="820" width="137" height="40" style="fill:green;stroke:black;stroke-width:1" /><text x="976" y="830" font-size="8" style="fill:white">ivan.jpg</text><rect x="680" y="920" width="200" height="40" style="fill:white;stroke:black;stroke-width:1" /><text x="690" y="930" font-size="10" style="fill:blue">persona</text><path d="M660 240 C680 240 660 940 680 940" style="fill:transparent;stroke:black" /><text x="690" y="940" font-size="8" style="fill:black">nombre: Jairo</text><text x="690" y="950" font-size="8" style="fill:black">apellidos: García Castro</text><text x="690" y="960" font-size="8" style="fill:black">fechaNacimiento: 2000-12-14</text><text x="690" y="970" font-size="8" style="fill:black">lugarNacimiento: Luarca</text><text x="690" y="980" font-size="8" style="fill:black">lugarResidencia: Oviedo</text><text x="690" y="990" font-size="8" style="fill:black">comentarios: Comentario sobre Jairo</text><rect x="900" y="920" width="200" height="40" style="fill:white;stroke:black;stroke-width:1" /><text x="910" y="930" font-size="10" style="fill:blue">coordenadasNacimiento</text><path d="M880 940 C900 940 880 940 900 940" style="fill:transparent;stroke:black" /><text x="910" y="940" font-size="8" style="fill:black">longitud: -6.53</text><text x="910" y="950" font-size="8" style="fill:black">latitud: 43.54</text><text x="910" y="960" font-size="8" style="fill:black">altitud: 40</text><rect x="900" y="970" width="200" height="40" style="fill:white;stroke:black;stroke-width:1" /><text x="910" y="980" font-size="10" style="fill:blue">coordenadasResidencia</text><path d="M880 940 C900 940 880 990 900 990" style="fill:transparent;stroke:black" /><text x="910" y="990" font-size="8" style="fill:black">longitud: -5.81</text><text x="910" y="1000" font-size="8" style="fill:black">latitud: 43.37</text><text x="910" y="1010" font-size="8" style="fill:black">altitud: 238</text><rect x="900" y="1020" width="200" height="40" style="fill:white;stroke:black;stroke-width:1" /><text x="910" y="1030" font-size="10" style="fill:blue">foto</text><path d="M880 940 C900 940 880 1040 900 1040" style="fill:transparent;stroke:black" /><rect x="966" y="1020" width="137" height="40" style="fill:green;stroke:black;stroke-width:1" /><text x="976" y="1030" font-size="8" style="fill:white">jairo.jpg</text><rect x="900" y="1070" width="200" height="40" style="fill:white;stroke:black;stroke-width:1" /><text x="910" y="1080" font-size="10" style="fill:blue">foto</text><path d="M880 940 C900 940 880 1090 900 1090" style="fill:transparent;stroke:black" /><rect x="966" y="1070" width="137" height="40" style="fill:green;stroke:black;stroke-width:1" /><text x="976" y="1080" font-size="8" style="fill:white">jairo2.jpg</text><rect x="460" y="1220" width="200" height="40" style="fill:white;stroke:black;stroke-width:1" /><text x="470" y="1230" font-size="10" style="fill:blue">persona</text><path d="M440 40 C460 40 440 1240 460 1240" style="fill:transparent;stroke:black" /><text x="470" y="1240" font-size="8" style="fill:black">nombre: Silvia</text><text x="470" y="1250" font-size="8" style="fill:black">apellidos: Suárez Prendes</text><text x="470" y="1260" font-size="8" style="fill:black">fechaNacimiento: 2001-02-27</text><text x="470" y="1270" font-size="8" style="fill:black">lugarNacimiento: San Juan de la Arena</text><text x="470" y="1280" font-size="8" style="fill:black">lugarResidencia: Oviedo</text><text x="470" y="1290" font-size="8" style="fill:black">comentarios: Comentario sobre Silvia</text><rect x="680" y="1220" width="200" height="40" style="fill:white;stroke:black;stroke-width:1" /><text x="690" y="1230" font-size="10" style="fill:blue">coordenadasNacimiento</text><path d="M660 1240 C680 1240 660 1240 680 1240" style="fill:transparent;stroke:black" /><text x="690" y="1240" font-size="8" style="fill:black">longitud: -6.06</text><text x="690" y="1250" font-size="8" style="fill:black">latitud: 43.55</text><text x="690" y="1260" font-size="8" style="fill:black">altitud: 8</text><rect x="680" y="1270" width="200" height="40" style="fill:white;stroke:black;stroke-width:1" /><text x="690" y="1280" font-size="10" style="fill:blue">coordenadasResidencia</text><path d="M660 1240 C680 1240 660 1290 680 1290" style="fill:transparent;stroke:black" /><text x="690" y="1290" font-size="8" style="fill:black">longitud: -5.82</text><text x="690" y="1300" font-size="8" style="fill:black">latitud: 43.35</text><text x="690" y="1310" font-size="8" style="fill:black">altitud: 238</text><rect x="680" y="1320" width="200" height="40" style="fill:white;stroke:black;stroke-width:1" /><text x="690" y="1330" font-size="10" style="fill:blue">foto</text><path d="M660 1240 C680 1240 660 1340 680 1340" style="fill:transparent;stroke:black" /><rect x="746" y="1320" width="137" height="40" style="fill:green;stroke:black;stroke-width:1" /><text x="756" y="1330" font-size="8" style="fill:white">sil.jpg</text><rect x="680" y="1370" width="200" height="40" style="fill:white;stroke:black;stroke-width:1" /><text x="690" y="1380" font-size="10" style="fill:blue">persona</text><path d="M660 1240 C680 1240 660 1390 680 1390" style="fill:transparent;stroke:black" /><text x="690" y="1390" font-size="8" style="fill:black">nombre: Sara</text><text x="690" y="1400" font-size="8" style="fill:black">apellidos: Ramírez Pérez</text><text x="690" y="1410" font-size="8" style="fill:black">fechaNacimiento: 2001-04-17</text><text x="690" y="1420" font-size="8" style="fill:black">lugarNacimiento: Fonsagrada</text><text x="690" y="1430" font-size="8" style="fill:black">lugarResidencia: Cudillero</text><text x="690" y="1440" font-size="8" style="fill:black">comentarios: Comentario sobre Sara</text><rect x="900" y="1370" width="200" height="40" style="fill:white;stroke:black;stroke-width:1" /><text x="910" y="1380" font-size="10" style="fill:blue">coordenadasNacimiento</text><path d="M880 1390 C900 1390 880 1390 900 1390" style="fill:transparent;stroke:black" /><text x="910" y="1390" font-size="8" style="fill:black">longitud: -7.06</text><text x="910" y="1400" font-size="8" style="fill:black">latitud: 43.11</text><text x="910" y="1410" font-size="8" style="fill:black">altitud: 8</text><rect x="900" y="1420" width="200" height="40" style="fill:white;stroke:black;stroke-width:1" /><text x="910" y="1430" font-size="10" style="fill:blue">coordenadasResidencia</text><path d="M880 1390 C900 1390 880 1440 900 1440" style="fill:transparent;stroke:black" /><text x="910" y="1440" font-size="8" style="fill:black">longitud: -6.16</text><text x="910" y="1450" font-size="8" style="fill:black">latitud: 43.55</text><text x="910" y="1460" font-size="8" style="fill:black">altitud: 8</text><rect x="900" y="1470" width="200" height="40" style="fill:white;stroke:black;stroke-width:1" /><text x="910" y="1480" font-size="10" style="fill:blue">foto</text><path d="M880 1390 C900 1390 880 1490 900 1490" style="fill:transparent;stroke:black" /><rect x="966" y="1470" width="137" height="40" style="fill:green;stroke:black;stroke-width:1" /><text x="976" y="1480" font-size="8" style="fill:white">sara.jpg</text><rect x="900" y="1520" width="200" height="40" style="fill:white;stroke:black;stroke-width:1" /><text x="910" y="1530" font-size="10" style="fill:blue">video</text><path d="M880 1390 C900 1390 880 1540 900 1540" style="fill:transparent;stroke:black" /><rect x="966" y="1520" width="137" height="40" style="fill:green;stroke:black;stroke-width:1" /><text x="976" y="1530" font-size="8" style="fill:white">saraV1.mp4</text><rect x="680" y="1620" width="200" height="40" style="fill:white;stroke:black;stroke-width:1" /><text x="690" y="1630" font-size="10" style="fill:blue">persona</text><path d="M660 1240 C680 1240 660 1640 680 1640" style="fill:transparent;stroke:black" /><text x="690" y="1640" font-size="8" style="fill:black">nombre: Celia</text><text x="690" y="1650" font-size="8" style="fill:black">apellidos: Melendi Lavandera</text><text x="690" y="1660" font-size="8" style="fill:black">fechaNacimiento: 2001-09-01</text><text x="690" y="1670" font-size="8" style="fill:black">lugarNacimiento: Pola de Siero</text><text x="690" y="1680" font-size="8" style="fill:black">lugarResidencia: Tineo</text><text x="690" y="1690" font-size="8" style="fill:black">comentarios: Comentario sobre Celia</text><rect x="900" y="1620" width="200" height="40" style="fill:white;stroke:black;stroke-width:1" /><text x="910" y="1630" font-size="10" style="fill:blue">coordenadasNacimiento</text><path d="M880 1640 C900 1640 880 1640 900 1640" style="fill:transparent;stroke:black" /><text x="910" y="1640" font-size="8" style="fill:black">longitud: -5.66</text><text x="910" y="1650" font-size="8" style="fill:black">latitud: 43.39</text><text x="910" y="1660" font-size="8" style="fill:black">altitud: 220</text><rect x="900" y="1670" width="200" height="40" style="fill:white;stroke:black;stroke-width:1" /><text x="910" y="1680" font-size="10" style="fill:blue">coordenadasResidencia</text><path d="M880 1640 C900 1640 880 1690 900 1690" style="fill:transparent;stroke:black" /><text x="910" y="1690" font-size="8" style="fill:black">longitud: -6.41</text><text x="910" y="1700" font-size="8" style="fill:black">latitud: 43.32</text><text x="910" y="1710" font-size="8" style="fill:black">altitud: 800</text><rect x="900" y="1720" width="200" height="40" style="fill:white;stroke:black;stroke-width:1" /><text x="910" y="1730" font-size="10" style="fill:blue">foto</text><path d="M880 1640 C900 1640 880 1740 900 1740" style="fill:transparent;stroke:black" /><rect x="966" y="1720" width="137" height="40" style="fill:green;stroke:black;stroke-width:1" /><text x="976" y="1730" font-size="8" style="fill:white">ce.jpg</text><rect x="900" y="1770" width="200" height="40" style="fill:white;stroke:black;stroke-width:1" /><text x="910" y="1780" font-size="10" style="fill:blue">foto</text><path d="M880 1640 C900 1640 880 1790 900 1790" style="fill:transparent;stroke:black" /><rect x="966" y="1770" width="137" height="40" style="fill:green;stroke:black;stroke-width:1" /><text x="976" y="1780" font-size="8" style="fill:white">ce2.jpg</text><rect x="680" y="1870" width="200" height="40" style="fill:white;stroke:black;stroke-width:1" /><text x="690" y="1880" font-size="10" style="fill:blue">persona</text><path d="M660 1240 C680 1240 660 1890 680 1890" style="fill:transparent;stroke:black" /><text x="690" y="1890" font-size="8" style="fill:black">nombre: Elena</text><text x="690" y="1900" font-size="8" style="fill:black">apellidos: Selgas Fernández</text><text x="690" y="1910" font-size="8" style="fill:black">fechaNacimiento: 2001-03-14</text><text x="690" y="1920" font-size="8" style="fill:black">lugarNacimiento: Pravia</text><text x="690" y="1930" font-size="8" style="fill:black">lugarResidencia: Grandas de Salime</text><text x="690" y="1940" font-size="8" style="fill:black">comentarios: Comentario sobre Elena</text><rect x="900" y="1870" width="200" height="40" style="fill:white;stroke:black;stroke-width:1" /><text x="910" y="1880" font-size="10" style="fill:blue">coordenadasNacimiento</text><path d="M880 1890 C900 1890 880 1890 900 1890" style="fill:transparent;stroke:black" /><text x="910" y="1890" font-size="8" style="fill:black">longitud: -6.11</text><text x="910" y="1900" font-size="8" style="fill:black">latitud: 43.49</text><text x="910" y="1910" font-size="8" style="fill:black">altitud: 220</text><rect x="900" y="1920" width="200" height="40" style="fill:white;stroke:black;stroke-width:1" /><text x="910" y="1930" font-size="10" style="fill:blue">coordenadasResidencia</text><path d="M880 1890 C900 1890 880 1940 900 1940" style="fill:transparent;stroke:black" /><text x="910" y="1940" font-size="8" style="fill:black">longitud: -6.83</text><text x="910" y="1950" font-size="8" style="fill:black">latitud: 43.23</text><text x="910" y="1960" font-size="8" style="fill:black">altitud: 240</text><rect x="900" y="1970" width="200" height="40" style="fill:white;stroke:black;stroke-width:1" /><text x="910" y="1980" font-size="10" style="fill:blue">foto</text><path d="M880 1890 C900 1890 880 1990 900 1990" style="fill:transparent;stroke:black" /><rect x="966" y="1970" width="137" height="40" style="fill:green;stroke:black;stroke-width:1" /><text x="976" y="1980" font-size="8" style="fill:white">elena.jpg</text><rect x="460" y="2120" width="200" height="40" style="fill:white;stroke:black;stroke-width:1" /><text x="470" y="2130" font-size="10" style="fill:blue">persona</text><path d="M440 40 C460 40 440 2140 460 2140" style="fill:transparent;stroke:black" /><text x="470" y="2140" font-size="8" style="fill:black">nombre: Lara</text><text x="470" y="2150" font-size="8" style="fill:black">apellidos: García Rodríguez</text><text x="470" y="2160" font-size="8" style="fill:black">fechaNacimiento: 2001-05-11</text><text x="470" y="2170" font-size="8" style="fill:black">lugarNacimiento: Cangas del Narcea</text><text x="470" y="2180" font-size="8" style="fill:black">lugarResidencia: Gijón</text><text x="470" y="2190" font-size="8" style="fill:black">comentarios: Comentario sobre Lara</text><rect x="680" y="2120" width="200" height="40" style="fill:white;stroke:black;stroke-width:1" /><text x="690" y="2130" font-size="10" style="fill:blue">coordenadasNacimiento</text><path d="M660 2140 C680 2140 660 2140 680 2140" style="fill:transparent;stroke:black" /><text x="690" y="2140" font-size="8" style="fill:black">longitud: -6.54</text><text x="690" y="2150" font-size="8" style="fill:black">latitud: 43.17</text><text x="690" y="2160" font-size="8" style="fill:black">altitud: 396</text><rect x="680" y="2170" width="200" height="40" style="fill:white;stroke:black;stroke-width:1" /><text x="690" y="2180" font-size="10" style="fill:blue">coordenadasResidencia</text><path d="M660 2140 C680 2140 660 2190 680 2190" style="fill:transparent;stroke:black" /><text x="690" y="2190" font-size="8" style="fill:black">longitud: -5.66</text><text x="690" y="2200" font-size="8" style="fill:black">latitud: 43.53</text><text x="690" y="2210" font-size="8" style="fill:black">altitud: 7</text><rect x="680" y="2220" width="200" height="40" style="fill:white;stroke:black;stroke-width:1" /><text x="690" y="2230" font-size="10" style="fill:blue">foto</text><path d="M660 2140 C680 2140 660 2240 680 2240" style="fill:transparent;stroke:black" /><rect x="746" y="2220" width="137" height="40" style="fill:green;stroke:black;stroke-width:1" /><text x="756" y="2230" font-size="8" style="fill:white">lara.jpg</text><rect x="680" y="2270" width="200" height="40" style="fill:white;stroke:black;stroke-width:1" /><text x="690" y="2280" font-size="10" style="fill:blue">persona</text><path d="M660 2140 C680 2140 660 2290 680 2290" style="fill:transparent;stroke:black" /><text x="690" y="2290" font-size="8" style="fill:black">nombre: María</text><text x="690" y="2300" font-size="8" style="fill:black">apellidos: Arias Alfonso</text><text x="690" y="2310" font-size="8" style="fill:black">fechaNacimiento: 2001-09-19</text><text x="690" y="2320" font-size="8" style="fill:black">lugarNacimiento: Pola de Allande</text><text x="690" y="2330" font-size="8" style="fill:black">lugarResidencia: Llanes</text><text x="690" y="2340" font-size="8" style="fill:black">comentarios: Comentario sobre María</text><rect x="900" y="2270" width="200" height="40" style="fill:white;stroke:black;stroke-width:1" /><text x="910" y="2280" font-size="10" style="fill:blue">coordenadasNacimiento</text><path d="M880 2290 C900 2290 880 2290 900 2290" style="fill:transparent;stroke:black" /><text x="910" y="2290" font-size="8" style="fill:black">longitud: -6.54</text><text x="910" y="2300" font-size="8" style="fill:black">latitud: 43.26</text><text x="910" y="2310" font-size="8" style="fill:black">altitud: 200</text><rect x="900" y="2320" width="200" height="40" style="fill:white;stroke:black;stroke-width:1" /><text x="910" y="2330" font-size="10" style="fill:blue">coordenadasResidencia</text><path d="M880 2290 C900 2290 880 2340 900 2340" style="fill:transparent;stroke:black" /><text x="910" y="2340" font-size="8" style="fill:black">longitud: -4.77</text><text x="910" y="2350" font-size="8" style="fill:black">latitud: 43.41</text><text x="910" y="2360" font-size="8" style="fill:black">altitud: 7</text><rect x="900" y="2370" width="200" height="40" style="fill:white;stroke:black;stroke-width:1" /><text x="910" y="2380" font-size="10" style="fill:blue">foto</text><path d="M880 2290 C900 2290 880 2390 900 2390" style="fill:transparent;stroke:black" /><rect x="966" y="2370" width="137" height="40" style="fill:green;stroke:black;stroke-width:1" /><text x="976" y="2380" font-size="8" style="fill:white">maria.jpg</text><rect x="680" y="2470" width="200" height="40" style="fill:white;stroke:black;stroke-width:1" /><text x="690" y="2480" font-size="10" style="fill:blue">persona</text><path d="M660 2140 C680 2140 660 2490 680 2490" style="fill:transparent;stroke:black" /><text x="690" y="2490" font-size="8" style="fill:black">nombre: Isabel</text><text x="690" y="2500" font-size="8" style="fill:black">apellidos: Menéndez Menéndez</text><text x="690" y="2510" font-size="8" style="fill:black">fechaNacimiento: 2000-09-18</text><text x="690" y="2520" font-size="8" style="fill:black">lugarNacimiento: Lastres</text><text x="690" y="2530" font-size="8" style="fill:black">lugarResidencia: Sevares</text><text x="690" y="2540" font-size="8" style="fill:black">comentarios: Comentario sobre Isabel</text><rect x="900" y="2470" width="200" height="40" style="fill:white;stroke:black;stroke-width:1" /><text x="910" y="2480" font-size="10" style="fill:blue">coordenadasNacimiento</text><path d="M880 2490 C900 2490 880 2490 900 2490" style="fill:transparent;stroke:black" /><text x="910" y="2490" font-size="8" style="fill:black">longitud: -5.26</text><text x="910" y="2500" font-size="8" style="fill:black">latitud: 43.50</text><text x="910" y="2510" font-size="8" style="fill:black">altitud: 7</text><rect x="900" y="2520" width="200" height="40" style="fill:white;stroke:black;stroke-width:1" /><text x="910" y="2530" font-size="10" style="fill:blue">coordenadasResidencia</text><path d="M880 2490 C900 2490 880 2540 900 2540" style="fill:transparent;stroke:black" /><text x="910" y="2540" font-size="8" style="fill:black">longitud: -5.66</text><text x="910" y="2550" font-size="8" style="fill:black">latitud: 43.35</text><text x="910" y="2560" font-size="8" style="fill:black">altitud: 7</text><rect x="900" y="2570" width="200" height="40" style="fill:white;stroke:black;stroke-width:1" /><text x="910" y="2580" font-size="10" style="fill:blue">foto</text><path d="M880 2490 C900 2490 880 2590 900 2590" style="fill:transparent;stroke:black" /><rect x="966" y="2570" width="137" height="40" style="fill:green;stroke:black;stroke-width:1" /><text x="976" y="2580" font-size="8" style="fill:white">isa.jpg</text><rect x="680" y="2670" width="200" height="40" style="fill:white;stroke:black;stroke-width:1" /><text x="690" y="2680" font-size="10" style="fill:blue">persona</text><path d="M660 2140 C680 2140 660 2690 680 2690" style="fill:transparent;stroke:black" /><text x="690" y="2690" font-size="8" style="fill:black">nombre: Idoia</text><text x="690" y="2700" font-size="8" style="fill:black">apellidos: Menéndez García</text><text x="690" y="2710" font-size="8" style="fill:black">fechaNacimiento: 2001-05-31</text><text x="690" y="2720" font-size="8" style="fill:black">lugarNacimiento: Cornellana</text><text x="690" y="2730" font-size="8" style="fill:black">lugarResidencia: Navelgas</text><text x="690" y="2740" font-size="8" style="fill:black">comentarios: Comentario sobre Idoia</text><rect x="900" y="2670" width="200" height="40" style="fill:white;stroke:black;stroke-width:1" /><text x="910" y="2680" font-size="10" style="fill:blue">coordenadasNacimiento</text><path d="M880 2690 C900 2690 880 2690 900 2690" style="fill:transparent;stroke:black" /><text x="910" y="2690" font-size="8" style="fill:black">longitud: -6.52</text><text x="910" y="2700" font-size="8" style="fill:black">latitud: 43.39</text><text x="910" y="2710" font-size="8" style="fill:black">altitud: 396</text><rect x="900" y="2720" width="200" height="40" style="fill:white;stroke:black;stroke-width:1" /><text x="910" y="2730" font-size="10" style="fill:blue">coordenadasResidencia</text><path d="M880 2690 C900 2690 880 2740 900 2740" style="fill:transparent;stroke:black" /><text x="910" y="2740" font-size="8" style="fill:black">longitud: -5.84</text><text x="910" y="2750" font-size="8" style="fill:black">latitud: 43.36</text><text x="910" y="2760" font-size="8" style="fill:black">altitud: 238</text><rect x="900" y="2770" width="200" height="40" style="fill:white;stroke:black;stroke-width:1" /><text x="910" y="2780" font-size="10" style="fill:blue">foto</text><path d="M880 2690 C900 2690 880 2790 900 2790" style="fill:transparent;stroke:black" /><rect x="966" y="2770" width="137" height="40" style="fill:green;stroke:black;stroke-width:1" /><text x="976" y="2780" font-size="8" style="fill:white">ido.jpg</text><rect x="900" y="2820" width="200" height="40" style="fill:white;stroke:black;stroke-width:1" /><text x="910" y="2830" font-size="10" style="fill:blue">foto</text><path d="M880 2690 C900 2690 880 2840 900 2840" style="fill:transparent;stroke:black" /><rect x="966" y="2820" width="137" height="40" style="fill:green;stroke:black;stroke-width:1" /><text x="976" y="2830" font-size="8" style="fill:white">ido2.jpg</text></svg>